<?xml version="1.0" encoding="UTF-8"?>
<svg width="26px" height="29px" viewBox="0 0 26 29" version="1.1" xmlns="http://www.w3.org/2000/svg" xmlns:xlink="http://www.w3.org/1999/xlink">
    <!-- Generator: Sketch 45.2 (43514) - http://www.bohemiancoding.com/sketch -->
    <title>Facebook_White</title>
    <desc>Created with Sketch.</desc>
    <defs></defs>
    <g id="Page-1" stroke="none" stroke-width="1" fill="none" fill-rule="evenodd">
        <g id="Facebook" fill="#000000">
            <path d="M0,14.0406313 C0,6.28620439 5.65547966,0 12.6318681,0 C19.6082566,0 25.2637363,6.28620439 25.2637363,14.0406313 C25.2637363,21.7950583 19.6082566,28.0812627 12.6318681,28.0812627 C5.65547966,28.0812627 0,21.7950583 0,14.0406313 Z M13.5274439,21.8281954 L13.5274439,14.1893507 L15.4245278,14.1893507 L15.6759324,11.5569625 L13.5274439,11.5569625 L13.5306671,10.2394268 C13.5306671,9.55285943 13.589355,9.18498095 14.4765231,9.18498095 L15.6625026,9.18498095 L15.6625026,6.55229463 L13.7651502,6.55229463 C11.4861248,6.55229463 10.6839669,7.82928612 10.6839669,9.97678424 L10.6839669,11.5572606 L9.26336996,11.5572606 L9.26336996,14.1896488 L10.6839669,14.1896488 L10.6839669,21.8281954 L13.5274439,21.8281954 Z" id="Combined-Shape"></path>
        </g>
    </g>
</svg>