<?xml version="1.0" encoding="UTF-8"?>
<svg width="229px" height="193px" viewBox="0 0 229 193" version="1.1" xmlns="http://www.w3.org/2000/svg" xmlns:xlink="http://www.w3.org/1999/xlink">
    <!-- Generator: Sketch 45.2 (43514) - http://www.bohemiancoding.com/sketch -->
    <title>Group 6</title>
    <desc>Created with Sketch.</desc>
    <defs></defs>
    <g id="Page-2" stroke="none" stroke-width="1" fill="none" fill-rule="evenodd">
        <g id="Group-6" fill="#FFFFFF">
            <path d="M126.88281,105.602151 C129.934815,97.7877664 159.893565,148.950899 159.893565,148.950899 C159.893565,148.950899 137.005528,176.003495 128.393416,165.095475 C119.781304,154.187455 123.830804,113.416536 126.88281,105.602151 Z" id="Triangle-12" transform="translate(141.553919, 136.238686) scale(-1, 1) translate(-141.553919, -136.238686) "></path>
            <path d="M135.057613,1.08459252 C151.116705,-15.7410221 88.2135216,168.452648 64.3799734,189.405981 C40.5464253,210.359314 0.280073921,104.321656 0.280073921,104.321656 C0.280073921,104.321656 118.998521,17.9102071 135.057613,1.08459252 Z" id="Triangle-11" transform="translate(68.964055, 96.073690) scale(-1, 1) translate(-68.964055, -96.073690) "></path>
            <path d="M14.6680624,54.6626991 C66.1709492,42.0630341 209.086159,9.17479534e-16 226.79336,0 C244.500561,0 78.1822009,95.9218405 78.1822009,95.9218405 C78.1822009,95.9218405 -36.8348243,67.262364 14.6680624,54.6626991 Z" id="Triangle-10" transform="translate(114.755262, 47.960920) scale(-1, 1) translate(-114.755262, -47.960920) "></path>
        </g>
    </g>
</svg>