<?xml version="1.0" encoding="UTF-8"?>
<svg width="26px" height="29px" viewBox="0 0 26 29" version="1.1" xmlns="http://www.w3.org/2000/svg" xmlns:xlink="http://www.w3.org/1999/xlink">
    <!-- Generator: Sketch 45.2 (43514) - http://www.bohemiancoding.com/sketch -->
    <title>Github_White</title>
    <desc>Created with Sketch.</desc>
    <defs></defs>
    <g id="Page-1" stroke="none" stroke-width="1" fill="none" fill-rule="evenodd">
        <g id="Github" transform="translate(0.736264, 0.774978)" fill="#FFFFFE">
            <path d="M12.6546264,0.103520401 C5.69206593,0.103520401 0.0461428571,6.37857429 0.0461428571,14.1198577 C0.0461428571,20.3127452 3.65885714,25.5667537 8.66859341,27.4201402 C9.29872527,27.5498889 9.53006593,27.1160781 9.53006593,26.745865 C9.53006593,26.4116287 9.51837363,25.3074885 9.51294505,24.1362689 C6.00525275,24.9841613 5.26508791,22.4824957 5.26508791,22.4824957 C4.69153846,20.8623782 3.86514286,20.4315848 3.86514286,20.4315848 C2.72117582,19.561642 3.95137363,19.5795144 3.95137363,19.5795144 C5.21748352,19.6781605 5.88415385,21.0239257 5.88415385,21.0239257 C7.0087033,23.1667516 8.83374725,22.5472539 9.55324176,22.1891105 C9.66640659,21.283423 9.99316484,20.6646217 10.3537473,20.3148342 C7.55323077,19.9604045 4.60927473,18.7585465 4.60927473,13.3877874 C4.60927473,11.857496 5.10181319,10.6071273 5.90837363,9.62554041 C5.77746154,9.27227124 5.34589011,7.8468928 6.03051648,5.91621412 C6.03051648,5.91621412 7.0892967,5.53950199 9.49874725,7.35296587 C10.5044945,7.04240467 11.5831099,6.88665985 12.6546264,6.88132135 C13.7261429,6.88665985 14.8055934,7.04240467 15.8132198,7.35296587 C18.2197473,5.53950199 19.2770659,5.91621412 19.2770659,5.91621412 C19.9633626,7.8468928 19.5315824,9.27227124 19.4006703,9.62554041 C20.2091099,10.6071273 20.6983077,11.857496 20.6983077,13.3877874 C20.6983077,18.7713125 17.7487143,19.9566907 14.9410989,20.303693 C15.3933407,20.7386643 15.7963077,21.5916631 15.7963077,22.8993626 C15.7963077,24.7745673 15.7816923,26.283969 15.7816923,26.745865 C15.7816923,27.1188634 16.0086484,27.5559237 16.6477582,27.4182834 C21.6547802,25.5628079 25.2629011,20.3106562 25.2629011,14.1198577 C25.2629011,6.37857429 19.6178132,0.103520401 12.6546264,0.103520401" id="Fill-51"></path>
        </g>
    </g>
</svg>