<?xml version="1.0" encoding="UTF-8"?>
<svg width="27px" height="29px" viewBox="0 0 27 29" version="1.1" xmlns="http://www.w3.org/2000/svg" xmlns:xlink="http://www.w3.org/1999/xlink">
    <!-- Generator: Sketch 45.2 (43514) - http://www.bohemiancoding.com/sketch -->
    <title>Instagram_White</title>
    <desc>Created with Sketch.</desc>
    <defs></defs>
    <g id="Page-1" stroke="none" stroke-width="1" fill="none" fill-rule="evenodd">
        <g id="Instagram" transform="translate(0.912088, 0.774978)" fill="#FFFFFF">
            <path d="M0,14.0406313 C0,6.28620439 5.65547966,0 12.6318681,0 C19.6082566,0 25.2637363,6.28620439 25.2637363,14.0406313 C25.2637363,21.7950583 19.6082566,28.0812627 12.6318681,28.0812627 C5.65547966,28.0812627 0,21.7950583 0,14.0406313 Z M12.6324997,6.55229463 C10.8028248,6.55229463 10.5732031,6.56118712 9.85458264,6.59753713 C9.13736577,6.63404315 8.6478056,6.76025414 8.21944045,6.9454364 C7.77633797,7.13670299 7.40046581,7.39255716 7.02599719,7.80894422 C6.65124787,8.22517527 6.42106476,8.64296641 6.24842743,9.13532968 C6.08140432,9.61162406 5.96771633,10.1559382 5.93543455,10.9528303 C5.90329313,11.7515946 5.89487179,12.0069807 5.89487179,14.0407093 C5.89487179,16.074438 5.90301242,16.3288881 5.93557491,17.1276523 C5.96855846,17.9248565 6.0821061,18.4690146 6.24856779,18.945153 C6.42078405,19.4376722 6.65096716,19.8554634 7.02557612,20.2716944 C7.39990438,20.6882375 7.77577655,20.9447157 8.21859832,21.1359823 C8.64724418,21.3211645 9.1369447,21.4473755 9.85402122,21.4838816 C10.5726416,21.5202316 10.802123,21.5291241 12.6316576,21.5291241 C14.4614729,21.5291241 14.6903928,21.5202316 15.4090133,21.4838816 C16.1262301,21.4473755 16.6163517,21.3211645 17.0449976,21.1359823 C17.4879597,20.9447157 17.8632705,20.6882375 18.2375987,20.2716944 C18.612348,19.8554634 18.8425311,19.4376722 19.0151685,18.945309 C19.180788,18.4690146 19.294476,17.9247004 19.3281614,17.1278083 C19.3604431,16.3290441 19.3688645,16.074438 19.3688645,14.0407093 C19.3688645,12.0069807 19.3604431,11.7517506 19.3281614,10.9529863 C19.294476,10.1557822 19.180788,9.61162406 19.0151685,9.13548569 C18.8425311,8.64296641 18.612348,8.22517527 18.2375987,7.80894422 C17.8628494,7.39240115 17.4881001,7.13654698 17.0445765,6.9454364 C16.6150885,6.76025414 16.1252477,6.63404315 15.4080308,6.59753713 C14.6894104,6.56118712 14.4606308,6.55229463 12.6303944,6.55229463 L12.6324997,6.55229463 Z" id="Combined-Shape"></path>
            <path d="M12.0281287,7.90176936 C12.2075031,7.90145734 12.4076501,7.90176936 12.6324997,7.90176936 C14.4312965,7.90176936 14.6444966,7.90894576 15.354836,7.94482775 C16.0117,7.9782136 16.3682031,8.10021235 16.6056847,8.20271003 C16.9200811,8.33843755 17.144229,8.50068653 17.3798859,8.76278105 C17.6156833,9.02487556 17.761653,9.27448939 17.8840431,9.62394874 C17.9762567,9.88760334 18.0861551,10.2838653 18.1160508,11.0139857 C18.1483326,11.8033894 18.1553504,12.0405226 18.1553504,14.0389933 C18.1553504,16.0374639 18.1483326,16.2745971 18.1160508,17.0640008 C18.0860147,17.7941212 17.9762567,18.1903832 17.8840431,18.4540378 C17.7619337,18.8034971 17.6156833,19.0523309 17.3798859,19.3142694 C17.1440886,19.5763639 16.9202215,19.7386129 16.6056847,19.8743404 C16.3684838,19.9773061 16.0117,20.0989929 15.354836,20.1323787 C14.6446369,20.1682607 14.4312965,20.1760611 12.6324997,20.1760611 C10.8335626,20.1760611 10.6203625,20.1682607 9.91016344,20.1323787 C9.25329945,20.0986808 8.89679635,19.9766821 8.6591744,19.8741844 C8.34477796,19.7384569 8.12020908,19.5762079 7.88441175,19.3141134 C7.64861442,19.0520189 7.50264465,18.8030291 7.38025461,18.4534137 C7.28804101,18.1897591 7.17814261,17.7934972 7.14824688,17.0633767 C7.1159651,16.273973 7.10950875,16.0368399 7.10950875,14.0371211 C7.10950875,12.0374024 7.1159651,11.8015173 7.14824688,11.0121136 C7.17828297,10.2819932 7.28804101,9.88573124 7.38025461,9.62176462 C7.50236394,9.27230526 7.64861442,9.02269144 7.88441175,8.76059693 C8.12020908,8.49850241 8.34477796,8.33625342 8.6591744,8.20021389 C8.89665599,8.09724819 9.25329945,7.97556145 9.91016344,7.94201959 C10.5316578,7.91081786 10.772508,7.90145734 12.0281287,7.89989726 L12.0281287,7.90176936 Z M16.2286897,9.14515822 C15.782359,9.14515822 15.4202417,9.54719249 15.4202417,10.043456 C15.4202417,10.5395634 15.782359,10.9420657 16.2286897,10.9420657 C16.6750204,10.9420657 17.0371377,10.5395634 17.0371377,10.043456 C17.0371377,9.5473485 16.6750204,9.14484621 16.2286897,9.14484621 L16.2286897,9.14515822 Z M12.6324997,10.1950964 C10.7218396,10.1950964 9.17273537,11.9169637 9.17273537,14.0407093 C9.17273537,16.164455 10.7218396,17.8855423 12.6324997,17.8855423 C14.5431599,17.8855423 16.0917027,16.164455 16.0917027,14.0407093 C16.0917027,11.9169637 14.5430195,10.1950964 12.6323594,10.1950964 L12.6324997,10.1950964 Z" id="Combined-Shape"></path>
            <path d="M12.6324997,11.5445711 C13.8726814,11.5445711 14.8781886,12.662061 14.8781886,14.0407093 C14.8781886,15.4192017 13.8726814,16.5368476 12.6324997,16.5368476 C11.3921777,16.5368476 10.3868109,15.4192017 10.3868109,14.0407093 C10.3868109,12.662061 11.3921777,11.5445711 12.6324997,11.5445711 L12.6324997,11.5445711 Z" id="Shape"></path>
        </g>
    </g>
</svg>