<?xml version="1.0" encoding="UTF-8"?>
<svg width="26px" height="29px" viewBox="0 0 26 29" version="1.1" xmlns="http://www.w3.org/2000/svg" xmlns:xlink="http://www.w3.org/1999/xlink">
    <!-- Generator: Sketch 45.2 (43514) - http://www.bohemiancoding.com/sketch -->
    <title>LinkedIN_White</title>
    <desc>Created with Sketch.</desc>
    <defs></defs>
    <g id="Page-1" stroke="none" stroke-width="1" fill="none" fill-rule="evenodd">
        <g id="LinkedIN" fill="#000000">
            <path d="M0,14.0406313 C0,6.28620439 5.65547966,0 12.6318681,0 C19.6082566,0 25.2637363,6.28620439 25.2637363,14.0406313 C25.2637363,21.7950583 19.6082566,28.0812627 12.6318681,28.0812627 C5.65547966,28.0812627 0,21.7950583 0,14.0406313 Z M8.9268054,11.6290642 L6.06414785,11.6290642 L6.06414785,21.1893952 L8.9268054,21.1893952 L8.9268054,11.6290642 Z M9.11534725,8.67166808 C9.09676747,7.73428368 8.49369653,7.02031567 7.51439941,7.02031567 C6.53510229,7.02031567 5.89487179,7.73428368 5.89487179,8.67166808 C5.89487179,9.58963601 6.51617951,10.3241626 7.47723986,10.3241626 L7.49553379,10.3241626 C8.49369653,10.3241626 9.11534725,9.58963601 9.11534725,8.67166808 Z M19.2506437,15.7077936 C19.2506437,12.7712734 17.8384092,11.4045691 15.9546486,11.4045691 C14.4347657,11.4045691 13.7542886,12.332499 13.3743464,12.9834587 L13.3743464,11.629318 L10.5113459,11.629318 C10.5490771,12.52641 10.5113459,21.1896491 10.5113459,21.1896491 L13.3743464,21.1896491 L13.3743464,15.8503714 C13.3743464,15.5646446 13.3929262,15.2796158 13.4686174,15.0750448 C13.6755103,14.5042258 14.1465791,13.9132288 14.9374487,13.9132288 C15.9737429,13.9132288 16.3879861,14.7898891 16.3879861,16.0746127 L16.3879861,21.1893952 L19.2505293,21.1893952 L19.2506437,15.7077936 Z" id="Combined-Shape"></path>
        </g>
    </g>
</svg>